<svg xmlns="http://www.w3.org/2000/svg" version="1.1" xmlns:xlink="http://www.w3.org/1999/xlink" width="631" height="419"><svg xmlns="http://www.w3.org/2000/svg" version="1.1" xmlns:xlink="http://www.w3.org/1999/xlink" width="631" height="419"><svg width="631" height="419" viewBox="0 0 631 419" fill="none" xmlns="http://www.w3.org/2000/svg">
<path d="M82.5413 152.964C82.5078 142.294 80.7445 93.132 84.8295 86.3463C89.4874 82.4033 94.7527 82.773 100.572 83.251C178.756 89.6715 263.391 126.824 314.843 187.046C329.757 171.908 341.972 159.437 359.248 146.652C402.853 114.977 453.402 94.1987 506.672 86.0491C516.655 84.5244 536.199 80.2419 545.004 85.7576C549.806 91.7067 546.987 203.474 548.331 219.867C548.625 223.444 548.744 253.68 548.233 258.687C548.127 259.76 547.989 260.83 547.821 261.896C546.18 263.718 543.621 266.742 541.214 267.021C526.651 268.714 512.397 269.415 497.908 271.878C431.582 283.15 360.082 314.975 314.912 366.61C272.961 314.653 191.976 280.558 127.515 271.369C114.311 269.487 97.2653 268.92 84.9825 264.606C80.7635 258.774 82.3928 227.326 82.4967 217.823L82.5413 152.964Z" fill="#BAB48C"></path>
<path d="M82.5413 152.964C82.5078 142.294 80.7445 93.132 84.8295 86.3463C89.4874 82.4033 94.7527 82.773 100.572 83.251C178.756 89.6715 263.391 126.824 314.843 187.046L314.692 215.697C308.657 224.015 305.175 245.724 305.966 254.872L305.526 256.331C299.585 275.734 279.262 260.238 275.477 270.96C276.28 275.164 276.332 275.842 279.425 278.725C284.602 280.122 296.516 279.212 302.381 279.004C300.125 286.304 295.56 299.728 294.001 306.746C293.566 312.498 292.304 322.511 300.262 322.742C303.271 320.62 303.497 319.272 305.115 315.768C308.781 321.986 310.063 323.954 314.814 329.315C314.92 341.746 314.952 354.178 314.912 366.61C272.961 314.653 191.976 280.558 127.515 271.369C114.311 269.487 97.2653 268.92 84.9825 264.606C80.7635 258.774 82.3928 227.326 82.4967 217.823L82.5413 152.964Z" fill="#BAB48C"></path>
<path d="M82.5475 152.964C82.514 142.294 80.7507 93.132 84.8357 86.3463C89.4936 82.4033 94.7589 82.773 100.578 83.251C178.762 89.6715 263.397 126.824 314.849 187.046L314.698 215.697C308.663 224.015 305.181 245.724 305.972 254.872C304.32 251.306 300.34 247.183 297.576 244.307C239.124 183.474 165.362 155.894 82.5475 152.964Z" fill="#BAB48C"></path>
<path d="M82.4967 217.824C167.964 220.367 233.833 245.837 294.001 306.747C293.566 312.5 292.304 322.513 300.262 322.744C303.271 320.622 303.497 319.273 305.115 315.769C308.781 321.988 310.063 323.956 314.814 329.316C314.92 341.747 314.952 354.18 314.912 366.612C272.961 314.655 191.976 280.559 127.515 271.371C114.311 269.489 97.2653 268.921 84.9825 264.607C80.7635 258.776 82.3928 227.328 82.4967 217.824Z" fill="#BAB48C"></path>
<path d="M314.846 187.048C329.76 171.911 341.976 159.439 359.252 146.654C402.857 114.979 453.405 94.2009 506.675 86.0513C516.659 84.5266 536.203 80.244 545.008 85.7597C549.81 91.7089 546.99 203.476 548.335 219.869C548.628 223.447 548.748 253.683 548.236 258.689C548.13 259.762 547.993 260.833 547.824 261.898C546.586 252.714 547.223 228.641 547.066 217.799L546.886 152.899C455.679 156.685 385.878 187.771 320.71 251.521C329.052 250.673 338.804 248.503 345.992 253.316C349.56 259.546 345.314 263.138 340.773 267.142C335.157 270.046 331.768 270.72 325.609 272.303C320.343 281.711 317.759 292.177 313.392 299.512C310.261 305.215 307.783 309.849 305.118 315.77C303.5 319.274 303.275 320.622 300.265 322.744C292.307 322.513 293.569 312.5 294.005 306.748C295.564 299.73 300.129 286.306 302.385 279.006C296.52 279.214 284.605 280.124 279.428 278.727C276.336 275.844 276.283 275.166 275.48 270.963C279.265 260.241 299.588 275.737 305.529 256.333L305.969 254.874C305.179 245.726 308.661 224.017 314.695 215.699L314.846 187.048Z" fill="#BAB48C"></path>
<path d="M359.675 282.418C415.621 239.389 476.588 219.951 547.057 217.801C547.214 228.642 546.577 252.716 547.815 261.9C546.175 263.722 543.615 266.745 541.209 267.025C526.645 268.718 512.392 269.418 497.902 271.881C431.576 283.154 360.077 314.979 314.906 366.614C314.947 354.182 314.914 341.75 314.808 329.319C310.058 323.958 308.776 321.99 305.109 315.772C307.774 309.85 310.252 305.217 313.383 299.514C317.75 292.178 320.334 281.713 325.6 272.305C331.759 270.722 335.148 270.047 340.764 267.144C345.853 270.61 347.47 266.728 351.581 270.103C354.652 272.625 356.665 279.944 359.675 282.418Z" fill="#BAB48C"></path>
<path d="M340.764 267.143C345.853 270.609 347.47 266.726 351.581 270.102C354.652 272.624 356.665 279.942 359.675 282.416C354.223 287.497 314.539 328.103 314.758 328.054L314.808 329.317C310.058 323.957 308.776 321.988 305.109 315.77C307.774 309.849 310.252 305.215 313.383 299.512C317.75 292.177 320.334 281.712 325.6 272.303C331.759 270.72 335.148 270.046 340.764 267.143Z" fill="#BAB48C"></path>
<path d="M313.383 299.512C314.982 304.036 314.463 321.594 314.758 328.053L314.808 329.317C310.058 323.956 308.776 321.988 305.109 315.77C307.774 309.848 310.252 305.215 313.383 299.512Z" fill="#BAB48C"></path>
<path d="M42.1626 122.981L54.948 122.871C54.9502 144.121 53.4147 284.857 56.8353 291.961C62.7316 296.35 72.2874 294.576 79.6935 294.837C112.629 295.997 145.395 301.359 176.679 311.536C210.696 322.658 242.546 339.551 270.835 361.475C281.953 370.118 307.449 398.876 315.363 400.589C323.425 398.355 345.781 371.861 356.948 363.09C397.003 331.689 444.051 310.433 494.085 301.128C511.375 297.846 528.87 295.76 546.446 294.885C553.329 294.559 560.32 295.488 567.152 294.692C569.601 294.406 571.944 293.752 573.7 291.926C576.625 288.872 575.151 139.876 575.14 122.836C600.211 122.398 599.228 132.295 598.848 153.063C599.217 208.412 598.915 263.81 598.915 319.148C598.904 339.913 594.605 340.021 574.671 340.468C569.498 340.584 563.821 340.692 558.626 340.893C544.825 341.431 531.069 342.758 517.42 344.865C475.507 350.987 433.745 360.728 394.559 377.017C380.653 382.798 365.765 388.987 352.912 396.866C343.342 402.73 334.482 410.517 324.512 415.616C321.221 417.298 317.39 418.667 313.651 418.278C302.143 417.084 287.85 402.929 277.59 397.079C258.056 385.943 236.532 377.036 215.384 369.496C174.927 355.071 130.69 346.094 87.9025 342.052C73.0579 340.649 57.2931 342.131 42.6841 339.738C39.4958 339.217 35.4477 337.04 33.7581 334.172C30.5643 328.75 30.792 160.499 31.2957 143.706C31.4107 139.867 31.8284 135.596 33.0479 131.927C34.6738 127.038 37.9279 125.262 42.1626 122.981Z" fill="#3D3C3D"></path>
<path d="M584.477 0C591.479 32.8197 597.61 38.4493 631 42.2125C597.577 49.2351 590.519 50.3744 584.5 84.9723C581.228 81.3868 581.194 64.4251 577.196 59.2344C568.458 47.869 551.837 45.0977 539.039 42.5152C572.975 37.4876 578.045 32.8487 584.477 0Z" fill="#BAB48C"></path>
</svg></svg><style>@media (prefers-color-scheme: light) { :root { filter: none; } }
@media (prefers-color-scheme: dark) { :root { filter: none; } }
</style></svg>